<?xml version="1.0" standalone="no"?>
<!DOCTYPE svg PUBLIC "-//W3C//DTD SVG 20010904//EN"
 "http://www.w3.org/TR/2001/REC-SVG-20010904/DTD/svg10.dtd">
<svg version="1.0" xmlns="http://www.w3.org/2000/svg"
 width="2509.000000pt" height="529.000000pt" viewBox="0 0 2509.000000 529.000000"
 preserveAspectRatio="xMidYMid meet">

<g transform="translate(0.000000,529.000000) scale(0.100000,-0.100000)"
fill="#000000" stroke="none">
<path d="M182 4945 c-94 -190 -172 -347 -172 -349 0 -6 692 -357 695 -354 7 8
345 689 345 696 0 5 -681 352 -693 352 -1 0 -80 -155 -175 -345z"/>
<path d="M1215 4718 c-10 -27 -165 -714 -165 -730 0 -10 2 -18 4 -18 2 0 172
-38 376 -85 205 -47 374 -84 375 -83 7 8 173 753 169 757 -5 5 -723 171 -741
171 -8 0 -16 -6 -18 -12z"/>
<path d="M2167 4313 c-8 -14 -71 -762 -65 -768 10 -10 762 -75 769 -67 8 9 73
761 67 768 -3 3 -154 18 -334 34 -181 16 -352 31 -381 35 -28 3 -54 2 -56 -2z"/>
<path d="M216 3689 c-97 -188 -176 -344 -176 -348 0 -7 671 -354 685 -354 9 0
369 683 362 688 -7 7 -685 355 -689 355 -3 0 -85 -154 -182 -341z"/>
<path d="M1196 3204 c-69 -202 -125 -369 -123 -370 8 -8 729 -256 732 -252 8
7 257 730 253 733 -3 3 -727 255 -732 255 -2 0 -60 -165 -130 -366z"/>
<path d="M2222 2983 l3 -388 393 -3 392 -2 0 390 0 390 -395 0 -395 0 2 -387z"/>
<path d="M9741 2092 c-233 -647 -426 -1183 -429 -1190 -3 -9 39 -12 191 -12
l194 0 48 135 47 135 378 0 377 0 48 -135 47 -135 194 0 c107 0 194 2 194 5 0
11 -852 2360 -858 2367 -4 4 -198 -522 -431 -1170z m559 -200 l126 -387 -255
-3 c-139 -1 -255 -1 -257 1 -4 4 250 777 256 777 3 0 61 -175 130 -388z"/>
<path d="M4475 3239 c-415 -37 -752 -306 -894 -712 -57 -163 -74 -272 -75
-467 0 -196 15 -301 66 -455 120 -361 388 -617 746 -712 85 -23 117 -26 257
-26 142 -1 171 2 259 26 171 46 366 157 475 271 l34 35 -66 73 c-36 40 -92
102 -125 137 l-58 65 -68 -57 c-79 -64 -183 -119 -276 -144 -87 -23 -261 -23
-350 1 -372 100 -585 490 -515 946 28 186 90 316 210 437 141 142 295 199 513
191 174 -7 304 -59 427 -171 l53 -47 64 67 c35 38 93 99 128 136 l65 69 -66
63 c-217 205 -499 301 -804 274z"/>
<path d="M21310 2768 l-1 -483 -21 30 c-94 130 -244 203 -433 212 -91 5 -125
2 -193 -15 -266 -68 -449 -261 -529 -559 -23 -87 -27 -117 -27 -268 0 -144 3
-183 22 -259 102 -406 431 -630 807 -551 144 30 306 141 373 254 l27 46 6
-105 c4 -58 7 -122 8 -142 l1 -38 132 0 131 0 -6 128 c-4 70 -7 601 -7 1180
l0 1052 -145 0 -145 0 0 -482z m-325 -482 c165 -44 287 -182 314 -356 14 -83
14 -365 1 -450 -6 -36 -26 -97 -45 -136 -76 -157 -216 -244 -390 -244 -297 0
-480 249 -462 630 7 142 24 214 74 313 61 122 176 219 289 246 59 14 163 12
219 -3z"/>
<path d="M6411 3219 c-202 -42 -365 -133 -506 -281 -126 -131 -205 -266 -264
-451 -48 -152 -65 -261 -65 -437 0 -523 257 -952 669 -1115 219 -87 519 -92
750 -13 256 88 473 296 589 564 136 313 152 694 44 1018 -131 394 -419 655
-797 721 -118 21 -304 18 -420 -6z m382 -375 c123 -27 210 -77 307 -174 135
-135 209 -302 229 -521 34 -362 -117 -696 -375 -831 -114 -60 -171 -73 -319
-72 -114 0 -140 4 -205 26 -112 39 -167 74 -251 157 -154 154 -230 356 -232
611 -1 271 72 469 233 631 131 133 261 186 453 188 48 1 120 -6 160 -15z"/>
<path d="M13799 3225 c-366 -69 -644 -319 -778 -698 -58 -165 -75 -271 -75
-472 0 -199 12 -287 65 -447 97 -299 304 -543 553 -653 332 -147 745 -112
1031 85 222 154 378 409 447 733 28 135 31 397 4 532 -53 272 -158 486 -320
649 -123 125 -273 209 -454 258 -102 27 -362 34 -473 13z m356 -380 c141 -29
294 -128 378 -243 51 -69 102 -176 133 -278 26 -83 28 -102 28 -269 0 -155 -3
-191 -22 -260 -28 -101 -80 -210 -137 -291 -208 -291 -640 -352 -931 -131
-267 203 -369 661 -229 1033 86 229 264 392 477 439 84 18 217 18 303 0z"/>
<path d="M18050 3234 c-252 -46 -401 -117 -557 -267 -309 -297 -434 -804 -313
-1273 90 -347 288 -601 574 -735 270 -126 623 -125 894 2 314 146 524 449 594
854 28 163 21 399 -15 556 -90 381 -311 665 -617 792 -125 52 -213 69 -380 72
-85 2 -166 1 -180 -1z m368 -407 c100 -35 171 -80 245 -154 102 -103 178 -249
213 -408 22 -104 23 -322 1 -421 -67 -300 -239 -503 -493 -580 -83 -26 -285
-26 -369 0 -250 75 -429 286 -489 578 -10 48 -16 127 -16 208 0 81 6 160 16
208 62 300 251 518 506 583 108 28 286 21 386 -14z"/>
<path d="M8060 2050 l0 -1160 580 0 580 0 0 195 0 195 -400 0 -400 0 0 965 0
965 -180 0 -180 0 0 -1160z"/>
<path d="M11222 2053 l3 -1158 410 0 c429 0 483 4 615 47 273 88 416 275 436
568 15 216 -85 408 -258 495 -39 19 -79 35 -89 35 -35 0 -19 15 52 49 179 85
280 280 265 511 -20 304 -184 498 -491 582 -75 21 -105 22 -513 26 l-432 3 2
-1158z m908 736 c30 -14 70 -40 88 -58 57 -57 67 -86 67 -192 0 -89 -2 -99
-30 -145 -32 -50 -103 -102 -175 -126 -21 -7 -129 -13 -267 -15 l-233 -4 0
286 0 287 248 -4 c241 -3 248 -4 302 -29z m-92 -939 c193 -32 281 -119 282
-280 0 -122 -42 -192 -145 -244 -73 -36 -154 -46 -387 -46 l-208 0 0 290 0
290 198 0 c108 0 225 -5 260 -10z"/>
<path d="M15422 2053 l3 -1158 180 0 180 0 3 483 2 482 144 0 143 0 205 -482
206 -483 196 -3 c154 -2 196 0 196 10 0 8 -93 229 -206 493 -113 264 -210 490
-214 501 -8 19 -1 26 67 59 99 49 217 163 262 254 97 191 96 462 0 652 -49 97
-162 206 -270 257 -171 83 -188 86 -672 90 l-427 3 2 -1158z m820 756 c107
-22 191 -78 231 -154 31 -57 31 -183 0 -240 -30 -56 -78 -99 -148 -132 -60
-28 -61 -28 -297 -31 l-238 -4 0 286 0 286 200 0 c109 0 223 -5 252 -11z"/>
<path d="M262 2593 c-51 -296 -115 -703 -111 -707 6 -6 722 -126 750 -126 13
0 27 64 79 380 35 209 61 382 59 385 -5 5 -730 125 -754 125 -8 0 -17 -22 -23
-57z"/>
<path d="M22555 2515 c-296 -65 -497 -287 -571 -631 -22 -103 -22 -322 -1
-420 86 -388 367 -604 787 -604 120 0 300 27 403 60 51 17 97 33 104 38 9 6 6
32 -13 107 -14 55 -27 101 -28 102 -1 1 -34 -9 -74 -22 -87 -31 -240 -55 -349
-55 -291 0 -489 141 -548 392 -8 35 -15 84 -15 111 l0 47 559 0 559 0 6 31
c11 55 7 183 -9 272 -53 305 -217 502 -471 567 -91 23 -246 26 -339 5z m307
-227 c137 -63 211 -183 233 -380 l6 -58 -426 0 -427 0 7 43 c33 195 156 356
314 409 81 27 218 20 293 -14z"/>
<path d="M2225 2498 c-3 -7 -4 -184 -3 -393 l3 -380 390 0 390 0 0 390 0 390
-388 3 c-305 2 -389 0 -392 -10z"/>
<path d="M1350 2110 l0 -390 390 0 390 0 0 390 0 390 -390 0 -390 0 0 -390z"/>
<path d="M23544 2483 c3 -10 140 -371 304 -803 l299 -785 135 -3 c101 -2 138
1 145 10 12 16 623 1572 623 1587 0 7 -51 11 -149 11 l-149 0 -16 -42 c-35
-95 -332 -953 -377 -1093 -27 -82 -52 -157 -55 -165 -3 -8 -23 44 -44 115 -22
72 -122 366 -223 655 l-184 525 -157 3 c-147 2 -157 1 -152 -15z"/>
<path d="M2220 1255 l0 -395 390 0 390 0 0 395 0 395 -390 0 -390 0 0 -395z"/>
<path d="M470 1250 l0 -390 390 0 390 0 0 390 0 390 -390 0 -390 0 0 -390z"/>
<path d="M1340 1250 l0 -390 395 0 395 0 -2 388 -3 387 -392 3 -393 2 0 -390z"/>
<path d="M19585 1273 c-135 -71 -161 -240 -52 -340 175 -161 435 41 325 252
-35 67 -105 105 -190 105 -29 -1 -66 -8 -83 -17z"/>
<path d="M2220 400 l0 -390 390 0 390 0 0 390 0 390 -390 0 -390 0 0 -390z"/>
<path d="M470 390 l0 -390 390 0 390 0 0 390 0 390 -390 0 -390 0 0 -390z"/>
<path d="M1340 390 l0 -390 390 0 390 0 0 390 0 390 -390 0 -390 0 0 -390z"/>
</g>
</svg>
